<?xml version="1.0" encoding="UTF-8"?>
<svg id="Layer_2" data-name="Layer 2" xmlns="http://www.w3.org/2000/svg" viewBox="0 0 521.49 462.35">
  <defs>
    <style>
      .cls-1 {
        fill: #e8c595;
      }

      .cls-2 {
        fill: #fbecc3;
      }

      .cls-3 {
        fill: #895d47;
      }

      .cls-4 {
        fill: #ba956f;
      }

      .cls-5 {
        fill: #553222;
      }

      .cls-6 {
        fill: #fdfdfd;
      }
    </style>
  </defs>
  <g id="Layer_1-2" data-name="Layer 1">
    <g>
      <path class="cls-4" d="M204.89,13.81c15.35,19.87,34.52,38.39,55.8,54.13,16.05-6.6,33.06-13.9,51.53-13.8-4.71-13.3-8.22-26.11-10.58-39.57l8.65,1.5c.33,6.13,2.08,12.02,3.82,18.44,5.99,19.31,13.92,37.53,23.99,55.08,14.38-1.57,27.48-1.19,41.89,1.03-.13-14.53.94-27.87,5.75-40.77.95,1.32,3.84,2.61,5.49,3.19-3.8,22.04-5.24,44.34.82,66.78,14.31.56,28.04,3.55,41.58,9.34,3.24-10.03,6.3-19.19,12.18-27.09.6,1.23,1.46,2.37,2.78,3.13l-.69,4.36-8.48,22.54c1.16,2.34,2.88,3.96,5.03,5.3,9.18-5.61,19.99,9.99,29.17,19.54,2.22-2,3.98-3.85,6.55-4.82.56,1.5,1.68,3.11,1.65,4.87-1.39.77-5.13,2.95-5,5.03l10.12,26.48,6.73,1.98,2.99,7.43c-1.85.27-2.98,2.19-2.64,4.31l5.36,34.06c-.87-.21-2.65-.38-3.36.3l-5.71-33.38c1.53-3.58.38-7.26-3.47-8.44-3.47-1.07-8.31-2.34-12.08.06-3.01,1.91-6.46,8.98-5.5,12.77l15.32,26.52c1.22,2.11,2.5,3.95,3.17,6.25-12.95,6.81-23.21,17.83-27.43,32.44-18.83-11.19-39.48-18.88-60.87-23.72-13.74-18.42-16.3-32.93-9.15-55.71-3.34-.94-7.52-1.26-9.74-3.37l-10.5-9.96c-19.75,2.71-38.56,8.95-56.19,18.37-1.17.62-2.38,2.38-1.61,3.71l11.92,20.62c-1.25,3.03-4.18,2.1-6.32,2.37-4.88-7.24-9.79-14.47-13.25-22.83-1.4-3.06-.54-6.02,2.36-7.72,8.78-5.56,18.2-9.18,27.81-12.85-9.3-12.05-15.89-24.36-22.22-37.85-19.48,6.92-36.68,17.25-52.4,30.19,4.24,10.69,10.06,19.25,16.53,27.99,1.55,2.09,3.42,3.79,3.67,6.18-9.75,4.22-20.36,4.18-30.45-.54-3.91-1.83-6.72-1.82-10.03,1.07-11.16,9.73-19.65,9.93-34.21,8.4-4.07,7.28-9.73,12.46-16.78,16.43l-13.56,7.64c-.2,8.56-2.05,16.35-6.48,23.31l-16.36,25.76,16.36,34.51c.99,2.1,2.51,3.63,3.86,4.89.15,1.11.31,2.76,1.1,4.21l12.65,23.34c1.01,1.87.83,3.97.22,5.55-2.99,7.69-31.18,5.13-45.26,2.84l3.62,19.99c17.62,5.59,35.07,9.43,53.4,10.87,16.35,1.28,34.64-16.08,47.77-25.59,2.57.93,5.1,1.71,7.29,1.91-12.2,10.92-24.93,20.82-40.51,28.55l11.71,19.93c16.05,1.03,31.81-.41,47.16-4.6,6.7-1.83,11.61-5.05,15.97-10.28l19.57-23.49c2.26.49,4.18.34,6.02-.02-6.79,11.8-15.56,22.42-25.3,31.98l-6.54,4.27c-15.62,6.57-32.24,8.41-49.13,8.84l-7.97-1.16c-1.21-.18-1.9.64-1.93,1.34-.82-.09-1.87-.54-2.48-1.53l-14.26-23.11c-19.83-.18-38.68-3.77-59.24-9.93.95,13.4,2.37,26.38,1.84,39.78l-8.53-3.79c1.09-21.74-.88-43.34-5.5-65.35l-32.86-10.05c-4.52-1.38-7.93-4.57-10.55-8.47l-9.22-12.9c-2.7,14.46-6.57,27.46-12.19,40.37-.58,1.34-1.29,2.27-2.41,2.86-1.78-2.05-3.09-4.59-5.75-5.78,6.84-14.99,12.38-30.8,13.48-47.85,1.05-16.25.49-31.95-.43-48.31-6.96,6.18-13.91,11.62-22.08,15.84-3.18,1.64-6.99-.43-8.32-3.24l-5.73-15.02c-4.86,8.22-10.93,14.85-18.39,20.57l-2.72-8.14c.24-.44.41-1.58,1.06-2.2,7.16-6.88,13.71-13.99,19.02-22.56-2.63-21.08-5.06-41.34-.45-62.72-8.57,3.25-16.24,5.61-24.66,6.51l1.31-8.16c17.22-4.45,33.85-10.9,49.24-20.63l4.4-23.6c1.86-9.96,5.85-18.7,11.12-27.61-12.61-.96-23.36-2.71-34.46-6.25l4.51-7.2c14.02,3.09,28.28,5.5,43.18,5.59l19.56-1.26c7.65-15.67,17.62-28.67,30.9-39.53-14.24-5.71-25.88-13.29-36.7-22.82,2.19-1.22,4.54-2.52,6.46-4.75,11.49,8.34,23.54,15.51,37.18,20.87l25.78,8.66c3.02-.41,5.9-3.92,8.21-5.89,12.02-10.24,24.7-18.48,39.49-23.95-10.4-10.46-19.32-20-25.75-31.43l8.27-1.38ZM249.79,119.47c-7.66-8.42-14.24-16.4-20.03-25.62-1.07-3.64.75-6.64,3.49-9.01l20.1-12.72c-9.12-6.87-16.82-13.44-24.62-21.04-27.71,9.79-48.73,29.34-66.55,51.71-1.13,1.42-1.84,3.19-1.49,4.64.26,1.09,1.43,2.06,2.78,2.97,19.33,11.5,39.56,20.6,61.19,27.8,7.96-6.77,15.67-12.63,25.14-18.74ZM300.81,104.54c-1.33-10.28,16.07-10.91,28.64-14.04-5.37-9.86-9.7-18.84-13.49-28.81-5.84-1.43-11.41-.86-17.29.57-20.69,5.01-40.1,13.21-57.2,25.74-1.5,1.1-2.68,2.32-2.79,3.79-.09,1.15.62,2.46,1.56,3.76,14.07,19.5,31.61,35.6,51.12,49.83l18.82-7.84c-4.3-11.12-7.51-21.42-9.38-33ZM190.85,133.41c-12.36-5.51-23.47-11.21-34.36-18.14-4.06-2.59-5.52-7.13-3.24-11.47l15.94-20.03-19.53-6.5c-25,18.57-34.9,41-44.29,69.93-.73,2.24.94,3.93,2.95,4.36,20.55,4.44,40.92,4.92,62.44,3.92l20.09-22.07ZM365.42,137.08c5.15-5.01,12.33-4.4,19.34-1.66-1.64-5.24-2.3-9.8.46-14.28l-3.96-23.14c-22.58-3.84-45.25-2.6-67.38,3.35-1.18.49-5.39,1.81-5.01,3.9,5,27.11,16.6,52.38,33.28,73.94l23.41-5.06c-6.19-12.53-9.64-27.8-.13-37.06ZM126.89,175.53l6.08-12.63c-10.1-.87-18.93-1.78-28.09-3.99-14.38-3.47-3.02-21.8,2.44-36.69l-21.59.93c-5.67,9.41-9.29,19.02-11.77,29.61-3.22,13.76-9.71,49.47-5.54,53.11.55.48,1.94,1.03,3.13.72,15.39-4.03,29.8-9.77,43.16-18.12,5.29-3.3,9.48-7.31,12.18-12.92ZM253.06,177.24c-1.84-3.81-.11-6.74,2.63-8.95,8.84-7.15,18.12-13.18,27.95-18.86-10.71-7.6-19.44-16.1-28.71-25.03-19.3,11.93-34.58,27.1-47.52,44.64-1.53,2.07-.54,4.6,1.23,6.11,13.69,11.69,28.44,21.54,44.92,28.91,6.11,2.74,12.22,4.61,19.52,3.92-7.48-10.01-14.95-19.13-20.02-30.73ZM434.7,177.13c.7-12.91,2.48-23.17,6.97-34.13-4.43-5.38-10.23-9.08-17.02-10.97-11.1-3.1-22-5.68-33.96-5.59-.12,4.14-.19,9.84,2.81,12.84l11.95,11.99,8.96,14.89c5.36,5.36,13.61,6.93,20.3,10.97ZM241.01,205.82c-15.11-7.58-27.93-15.86-39.33-26.71-3.49-3.32-4.71-7.62-1.84-11.64,5.91-8.31,12.57-15.49,19.58-23.09l-21.25-7.92c-7.39,6.63-14.12,13.28-20.55,20.92-7.68,12.78-13.33,26.31-17.25,40.85-.61,2.25,1.19,4.31,3.3,4.94,18.52,5.55,37.35,8.44,56.75,10.03,7.99.66,15.04-1.66,20.6-7.38ZM481.96,187.28c-2.73-8.87-5.3-17.7-10.6-24.92-5.06-6.91-19.04-20.41-21.88-18.75-3.43,2-11.42,27.43-9,37.74,8.92,6.4,17.18,12.96,24.75,21.04,3.7-10.81,5-14.08,16.72-15.1ZM405.71,170.11c-3.44-9.83-9.62-18.32-18.95-23.08-3.37-1.72-8.39-3.37-11.76-1.35-9.54,5.73.72,38.52,20.04,39.49-5.25-9.59-4.66-19.58.55-19.53,3.45.03,7.52,3.34,9.3,5.37l.81-.91ZM200.53,217.92c-15.75-1.46-29.33-4.15-42.97-8.69-3.66-1.92-5.48-5.43-4.45-9.51,3.2-12.72,7.57-24.59,13.73-36.68l-27.06.12c-3.99,9.7-8.14,18.31-13.6,27.03-1.43,14.38.93,58.34,8.3,56.82,18.84-3.89,36.68-10.37,53.77-18.97,4.91-2.67,9.74-5.01,12.29-10.12ZM406.2,170.86l-.28,1.33c.74-.1.94-.91.28-1.33ZM95.16,207.06l-24.85,7.85c-4.9,1.08-9.19-1.78-9.8-6.79-.46-7.78.13-15.03,1-23.22l-16.32,8.23c-3.02,9.69-4.83,19.61-4.44,30.12.54,14.63,4.84,55.88,9.46,57.87,3.46,1.49,25.23-17.04,32.18-25.73-5.55-14.68,6.68-32.65,12.76-48.34ZM152.67,280.85l14.55-20.95c3.53-5.09,5.48-11.12,4.79-17.24-12.78,5.31-24.78,9.5-37.54,12.23-5.04,1.08-9.03-1.79-10.16-6.62-4.14-17.73-5.46-35.37-5.21-53.8l-14.42,7.95c-6.04,11.89-11.09,23.84-15.64,36.31-2.03,5.57-1.34,10.33,1.34,15.65,9.45,18.75,21.12,36.04,34.71,52.12,1.17,1.39,4.63,4.42,6.04,2.56l21.53-28.2ZM448.79,219.9c3.44-4.16,2.87-9.73-.19-13.25-2.82-3.23-7.48-4.81-12.1-3.42-4.82,1.46-7.37,5.94-7.17,10.45s3.07,8.63,7.28,9.9,8.96.22,12.19-3.68ZM179.88,358.71c-11.54-21.01-20.76-40.72-30.58-62.07l-14.03,19.22c-1.46,2-3.97,2.96-6.1,2.8s-4.28-1.33-6-3.26c-14.33-16.06-25.67-33.89-35.83-53.37l-6.65,6.52c.67,16.32,1.27,32.1.55,48.53l15.66,24.71c1.87,2.95,4.78,4.87,8.17,5.99,22.95,7.6,50.66,16.3,74.82,10.94Z"/>
      <path class="cls-3" d="M349.11,290.09c.8,7.62,2.42,15.87,6.48,22.85,3.15,5.41,7.64,7.57,13.97,7.65l19.05.26,1.34,4.65c-5.98-.76-12.09-1.75-18.57.17,5.62.76,11.25,1.99,15.39,5.86,2.76,2.58,5.05,6.27,6.75,9.72l-9.97-3.13c-2.59-5.27-13.33-6.71-20.43-4.62l8.15,4.61c3.04,4.79,6.39,9.6,7.44,15.47-21.75,1.43-51.61,7.44-69.38-7.31-16.93-14.06-31.63-30.6-42.92-48.93,25.66-6.26,47.77-14.25,66.62-33.24,4.49,5.04,9.01,8.86,14.48,12.14l-.13,11.07c-.02,1.57.77,2.37,1.75,2.79Z"/>
      <path class="cls-1" d="M301.65,14.56c2.36,13.47,5.86,26.28,10.58,39.57-18.47-.1-35.48,7.2-51.53,13.8-21.28-15.74-40.45-34.26-55.8-54.13-1.19-1.55-2.51-5.04-2.54-7.68-.05-3.99,5.13-6.41,9.36-6.09,30.54,2.3,60.53,7.5,89.94,14.53Z"/>
      <path class="cls-2" d="M196.62,15.19c6.44,11.44,15.35,20.98,25.75,31.43-14.79,5.48-27.47,13.72-39.49,23.95-2.31,1.97-5.2,5.48-8.21,5.89l-25.78-8.66c-13.63-5.36-25.69-12.53-37.18-20.87-1.72-3.91-5.66-4.87-4.52-10.17,1.08-5,31.51-11.93,43.17-13.88l46.26-7.7Z"/>
      <path class="cls-1" d="M139.87,429.59c-.15,3-.83,6.3-3.38,8.08-7.07,4.96-16.7-6.43-23.89-12.57-5.34-4.56-9.79-9.35-14.54-14.49l-14.4-15.57-16.51-18.98c1.11-.59,1.82-1.52,2.41-2.86,5.62-12.91,9.49-25.91,12.19-40.37l9.22,12.9c2.62,3.89,6.03,7.09,10.55,8.47l32.86,10.05c4.61,22,6.59,43.61,5.5,65.35Z"/>
      <path class="cls-2" d="M385.75,49.84c-4.81,12.9-5.88,26.24-5.75,40.77-14.41-2.22-27.51-2.6-41.89-1.03-10.07-17.55-18-35.77-23.99-55.08-1.74-6.42-3.49-12.31-3.82-18.44-.16-2.99-.35-6.52,2.14-8.52,1.95-1.56,5.58-1.96,8.4-.67,15.35,7,29.1,16.26,42.81,25.98,5.08,3.6,9.89,6.48,14.4,10.73,2.55,2.4,5.77,3.61,7.69,6.27Z"/>
      <path class="cls-1" d="M105.24,51.69c10.82,9.53,22.46,17.11,36.7,22.82-13.28,10.86-23.25,23.87-30.9,39.53l-19.56,1.26c-14.9-.09-29.17-2.5-43.18-5.59-3.41-.75-7.36-2.62-9.47-5.94s-.27-7.48,2.38-9.92c15.54-14.31,44.85-31.49,64.04-42.17Z"/>
      <path class="cls-2" d="M61.4,370.28c-1.34,2.94-3.54,6.54-7.04,7.77-7.11,2.51-16.59-25.94-20.3-37.52l-10.9-34.06c-1.59-4.98-1.87-9.78-3.24-14.2,7.47-5.72,13.53-12.35,18.39-20.57l5.73,15.02c1.33,2.81,5.14,4.88,8.32,3.24,8.17-4.22,15.12-9.66,22.08-15.84.92,16.36,1.48,32.06.43,48.31-1.1,17.05-6.64,32.86-13.48,47.85Z"/>
      <path class="cls-2" d="M222.54,428.18c-.11,2.88,1.75,5.06,3.21,7.8,2.95,5.52,5.19,11.71,6.8,17.4.6,2.1,1.11,7-1.61,8.27-11.29,5.29-65.22-20.17-82.55-28.25.53-13.41-.89-26.39-1.84-39.78,20.56,6.17,39.41,9.76,59.24,9.93l14.26,23.11c.61.99,1.66,1.44,2.48,1.53Z"/>
      <path class="cls-2" d="M13.49,195.01c-3.23.83-7.25.14-9.32-2.13s-2.99-6.47-1.3-9.54l18.02-32.75c4.61-8.38,9.92-15.78,15.37-23.52,2.63-3.74,5.25-6.8,7.53-10.15,11.09,3.54,21.85,5.29,34.46,6.25-5.27,8.91-9.26,17.65-11.12,27.61l-4.4,23.6c-15.39,9.73-32.02,16.18-49.24,20.63Z"/>
      <path class="cls-2" d="M445.81,102.06c-5.88,7.9-8.94,17.06-12.18,27.09-13.54-5.78-27.26-8.78-41.58-9.34-6.06-22.44-4.62-44.74-.82-66.78.66-3.85,2.53-9.34,8.15-7.77,5.05,1.41,8.88,6.22,12.02,9.92l9.73,11.49c9.46,11.18,18.44,22.58,24.68,35.38Z"/>
      <path class="cls-2" d="M380.56,189.99c-4.64,14.68-7.96,29.35-8.55,44.9-.09,2.39,1.14,5.09-.66,7.19-1.11,1.29-2.46,2.46-2.59,4-3.76.38-6.39,3.99-11.17,4.09-4.78.1-9.66-2.03-13.67-5.5-7.57-6.56-14.93-13.59-19.75-21.93l-11.92-20.62c-.77-1.33.44-3.08,1.61-3.71,17.63-9.42,36.45-15.65,56.19-18.37l10.5,9.96Z"/>
      <path class="cls-1" d="M17.21,284.13c-2.77,1.06-6.02,4.58-9.7,4.28-6.13-.5-7.94-6.77-7.42-12.32,2.33-24.93,7.76-48.85,12.09-72.92,8.42-.91,16.09-3.26,24.66-6.51-4.61,21.38-2.19,41.63.45,62.72-5.3,8.57-11.86,15.68-19.02,22.56-.65.62-.82,1.76-1.06,2.2Z"/>
      <path class="cls-3" d="M318.96,450.4c2.64,2.89-2.73,7.54-6.52,7.85-23.14,1.89-45.54-.45-67.97-3.38-2.23-1.79-3.08-3.88-4.19-6.61l-7.84-20.26c16.89-.43,33.5-2.27,49.13-8.84,13.54,9.11,26.45,19.28,37.39,31.25Z"/>
      <path class="cls-2" d="M383.54,338.12l9.97,3.13c4.69,1.47,9.24,5.26,11.12,9.8,1.18,2.85,2.51,5.51.94,9.08,2.91-.2,4.83.28,6.82,1.13-.84,8.55-3.21,16.78-6.03,24.97-8.87,11.64-21.16,20.33-34.72,26.95l-11.49-5.37c5.24-10.05,10.32-19.94,13.19-30.79l31.5-15.87c-8.61-3.74-17.07-8.16-26.14-7.56-1.05-5.87-4.4-10.68-7.44-15.47,4.11-1.56,8.39-1.21,12.28,0Z"/>
      <path class="cls-3" d="M499.38,236.27c1.76.42,3.53.26,5.51-.09,7,23.01,21.29,28.26,15.08,39.86-9.87-.34-14.35-10.82-21.44-5.37-2.52,1.93-3.56,6.51-1.39,9.87,1.68,2.61,4.23,4.14,6.42,5.81-3.01,3.18-8.11,3.56-11.66.9-.62-2.06-2.79-3.3-4.6-4.78-11.37-9.29-5.85-17.26-9.27-17.56-3.61-.32-3.88,11.76,5.2,18.48.97.72,1.16,1.92,1.1,2.8-8.77-2.82-16.25-8.76-24.04-13.4,4.22-14.61,14.48-25.63,27.43-32.44,2.59-1.36,5.93-1.5,8.27-3.78.7-.68,2.48-.51,3.36-.3Z"/>
      <path class="cls-5" d="M464.65,356.84l.42,2.02c-1.98-.41-3.98-.11-6.23.45l-11.56,2.85c-4.18,10.07-10.95,18.18-18.98,25.62,3.56,1.1,6.47,1.74,9.07,3.62-.54.36-.81,1.47-1.09,2.14-8.84-2.3-17.89-2.36-27.77-2.22-7.67,11.07-18.02,18.88-30.31,24.49,4.94,3.4,9.66,5.16,14.43,7.42-2.31.78-4.53,2.64-7.25,3.11l-31.24-13.75c-12.34,10.62-27.23,15.53-43.74,19.16l15.12,15.74-6.58,2.93c-10.95-11.97-23.86-22.14-37.39-31.25l6.54-4.27,15.28,12.3c14.64-2.21,45.31-12.14,49.59-20.36,2.39.4,5.34.13,7.17.98l11.49,5.37c13.56-6.62,25.85-15.31,34.72-26.95l7-.16,8.07-.06c9.96-7.88,18.85-17.44,24.06-28.83,2.56,1.09,4.76,0,6.94-.39,3.99-.71,8.39-.88,12.24.05Z"/>
      <path class="cls-3" d="M385.39,426.33c1.4.62,1.78,3.71,1.09,5.03-4.08,7.77-42.67,15.54-55.92,16-.04-1.21-.75-1.25-1.55-1.29-1.09-.05-1.65.4-1.5,1.4h-1.97s-15.12-15.73-15.12-15.73c16.5-3.63,31.39-8.54,43.74-19.16l31.24,13.75Z"/>
      <path class="cls-2" d="M480.16,152.11c-2.57.97-4.33,2.82-6.55,4.82-9.18-9.54-19.99-25.15-29.17-19.54-2.15-1.34-3.87-2.96-5.03-5.3l8.48-22.54.69-4.36c1.36-1.42,3.6-2.76,5.44-2.53s3.54,1.54,4.68,3.46c8.78,14.76,15.58,30.24,21.45,45.98Z"/>
      <path class="cls-3" d="M317.85,225.1c2.15-.27,5.07.66,6.32-2.37,4.82,8.34,12.18,15.38,19.75,21.93,4.01,3.47,8.88,5.6,13.67,5.5l-5.24,19.77c-.85.97-1.92,1.14-2.74.91l-16.5-16.07c1.32-1.21,2.32-3.55,3.64-5.81-6.08-4.56-10.5-9.94-15.54-16.06-13.99,2.54-27.29-1.3-38.13-10.33-1.87-1.55-3.99-2.56-4.82-4.84,1.84-2.74,5.54-2.68,6.49-5.33,10.12,9.1,19.25,14.46,33.1,12.69Z"/>
      <path class="cls-3" d="M436.29,393.53c.79,2.53-.07,5.1-2.45,7.07-12.35,10.2-26.4,17.63-41.21,22.62-4.77-2.26-9.49-4.03-14.43-7.42,12.29-5.61,22.64-13.42,30.31-24.49,9.88-.14,18.94-.08,27.77,2.22Z"/>
      <path class="cls-5" d="M399.45,249.07c-10.08-2.28-20.37-4.04-30.69-2.99.12-1.53,1.47-2.7,2.59-4,1.8-2.09.57-4.79.66-7.19.59-15.56,3.92-30.22,8.55-44.9,2.23,2.11,6.4,2.42,9.74,3.37-7.15,22.78-4.59,37.28,9.15,55.71Z"/>
      <path class="cls-2" d="M446.3,338.7c-.08,6.17,1.65,13.07-.82,18.47-5.21,11.4-14.1,20.95-24.06,28.83l-8.07.06c.63-8.51,4.76-17.49,3.69-27.4,3.32-3.58,7.59-6.14,12.04-8.98l17.21-10.98Z"/>
      <path class="cls-5" d="M333.11,254.78l16.5,16.07c-.91,6.48-1.6,12.87-.49,19.24-.98-.42-1.77-1.22-1.75-2.79l.13-11.07c-5.47-3.28-9.99-7.1-14.48-12.14-18.85,18.99-40.96,26.98-66.62,33.24-1.74-2.82-3.84-5.44-4.71-8.51,21.5-2.46,42.65-10.82,60.41-23.93l11.02-10.11Z"/>
      <path class="cls-3" d="M465.08,358.86c1.56,1.02,1.23,3.9-.17,5.81-7.64,10.5-17.1,19.65-27.53,26.72-2.61-1.88-5.51-2.52-9.07-3.62,8.03-7.44,14.8-15.54,18.98-25.62l11.56-2.85c2.26-.56,4.25-.85,6.23-.45Z"/>
      <path class="cls-3" d="M464.65,356.84c-3.86-.94-8.26-.76-12.24-.05-.82-1.62-.78-3.22-.08-4.59,9.76-8.57,20.58-19.03,24.23-31.3.73-.4,1.62-.61,2.09-.12.71.75,1.23,2.31,1.21,3.45-.2,11.38-5.79,21.1-11.93,30.39-.99,1.5-1.51,2.66-3.28,2.23Z"/>
      <path class="cls-2" d="M476.56,320.89c-3.65,12.27-14.47,22.73-24.23,31.3l-1.4-16.69,6.06-4.88c5.97-4.81,11.91-9.83,19.57-9.72Z"/>
      <path class="cls-4" d="M416.64,348.04c-5.29-8.5-13.51-14.48-23.23-16.6.02-1.97-1.29-5.67-3.47-5.95l-1.34-4.65c15.96,1.41,30.75,11.94,35.2,27.83-2.93,1.35-5.05-.08-7.16-.64Z"/>
      <path class="cls-1" d="M393.41,331.44c9.72,2.12,17.94,8.1,23.23,16.6,1.23,1.98,2,8.03-.99,8.17l-11.03-5.15c-1.88-4.54-6.42-8.33-11.12-9.8-1.7-3.46-3.98-7.14-6.75-9.72,2.42-.89,4.5-.55,6.65-.09Z"/>
      <path class="cls-5" d="M519.97,276.03c-3.23,6.03-9.79,9.01-16.4,10.31-2.19-1.66-4.73-3.2-6.42-5.81-2.18-3.36-1.13-7.94,1.39-9.87,7.09-5.45,11.57,5.03,21.44,5.37Z"/>
      <path class="cls-5" d="M232.44,428l7.84,20.26c1.11,2.73,1.95,4.82,4.19,6.61l-11.91-1.51c-1.61-5.68-3.85-11.87-6.8-17.4-1.46-2.74-3.32-4.92-3.21-7.8.03-.7.72-1.52,1.93-1.34l7.97,1.16Z"/>
      <path class="cls-2" d="M493.66,190.47l-6.73-1.98-10.12-26.48c-.13-2.08,3.61-4.25,5-5.03.79.39,1.99.99,2.48,2.47l7.74,23.28,1.63,7.75Z"/>
      <path class="cls-2" d="M496.65,197.9c.85,1.02,2.39,2.39,2.74,4.36l4.48,25.77,1.02,8.15c-1.98.35-3.75.52-5.51.09l-5.36-34.06c-.34-2.12.78-4.05,2.64-4.31Z"/>
      <path class="cls-4" d="M417.05,358.67c1.06,9.9-3.07,18.88-3.69,27.4l-7,.16c2.82-8.19,5.2-16.42,6.03-24.97,1.64-.74,3.57-1.41,4.67-2.59Z"/>
      <path class="cls-4" d="M450.93,335.5l1.4,16.69c-.7,1.38-.74,2.97.08,4.59-2.18.39-4.37,1.48-6.94.39,2.47-5.4.75-12.3.82-18.47,1.34-.86,3.46-2.26,4.63-3.21Z"/>
      <path class="cls-5" d="M491.91,287.24c-2.6.65-5.08-.26-7.56-1.06.06-.88-.13-2.08-1.1-2.8-9.08-6.72-8.81-18.8-5.2-18.48,3.42.3-2.1,8.27,9.27,17.56,1.81,1.48,3.97,2.71,4.6,4.78Z"/>
      <path class="cls-5" d="M330.56,447.36l-3.04.11c-.16-1,.41-1.44,1.5-1.4.8.03,1.51.08,1.55,1.29Z"/>
      <path class="cls-5" d="M280.36,208.21c2.15.66,2.94,2.9,4.39,4.2-.95,2.65-4.65,2.59-6.49,5.33-5.98,2.1-11.56,5.3-17.39,8.82-4.06,12.94-7.36,25.63-8.16,38.67-6.64.45-12.98,2.38-19.62,4.45l-12.04,21.91c-4.06,9.96-3.55,20.66,1.55,29.71-14.68,1.08-29.42,1.79-44.08,5.93-2.12.6-3.27,1.15-3.35,3.45l-2.46-1c-1.35-1.26-2.87-2.79-3.86-4.89l-16.36-34.51,16.36-25.76c4.43-6.97,6.27-14.75,6.48-23.31l13.56-7.64c7.05-3.97,12.7-9.15,16.78-16.43,14.56,1.53,23.05,1.32,34.21-8.4,3.31-2.88,6.12-2.9,10.03-1.07,10.09,4.72,20.7,4.76,30.45.54Z"/>
      <path class="cls-6" d="M252.72,265.23l-.97,15.76c-.15,2.38.86,5.32,2.25,6.31,2.13,1.51,5.24,1.81,7.68,1.53.87,3.07,2.98,5.69,4.71,8.51,11.29,18.33,25.99,34.88,42.92,48.93,17.77,14.75,47.64,8.74,69.38,7.31,9.07-.6,17.52,3.82,26.14,7.56l-31.5,15.87c-1.83.92-3.78,2.01-6.08,2.35-.12-3.71-3.53-6.1-7.8-5.28l-46.05,8.83c-1.83.35-3.76.51-6.02.02.8-8.12-8.45-6.08-16.9-6.83l-37-3.3c-2.19-.2-4.72-.98-7.29-1.91.97-1.91.69-5.27-2-6.42l-22.01-9.42,7.27-.86c13.6-.56,23.49,14.89,27.37,10.29,2.8-3.32-2.11-8.13-2.35-12.27,8.21,3.58,12.57,10.95,16.55,10.35,4.17-.63.78-8.48-3-15.16l7.49,5.77c.97.84,2.46,1.05,3.11.53,4.53-3.66-10.19-31.54-36.09-32.93l-18.05.4-1.88.14c-5.1-9.05-5.61-19.75-1.55-29.71l12.04-21.91c6.64-2.07,12.98-4,19.62-4.45Z"/>
      <path class="cls-1" d="M249.79,119.47c-9.47,6.11-17.18,11.97-25.14,18.74-21.63-7.21-41.86-16.3-61.19-27.8-1.34-.91-2.52-1.87-2.78-2.97-.35-1.46.36-3.22,1.49-4.64,17.83-22.37,38.85-41.92,66.55-51.71,7.8,7.59,15.5,14.17,24.62,21.04l-20.1,12.72c-2.74,2.37-4.56,5.37-3.49,9.01,5.79,9.21,12.37,17.2,20.03,25.62Z"/>
      <path class="cls-2" d="M179.88,358.71c-24.16,5.36-51.88-3.34-74.82-10.94-3.39-1.12-6.3-3.04-8.17-5.99l-15.66-24.71c.72-16.43.12-32.21-.55-48.53l6.65-6.52c10.16,19.48,21.5,37.3,35.83,53.37,1.72,1.93,3.9,3.11,6,3.26s4.64-.8,6.1-2.8l14.03-19.22c9.83,21.35,19.04,41.07,30.58,62.07Z"/>
      <path class="cls-2" d="M300.81,104.54c1.87,11.58,5.09,21.89,9.38,33l-18.82,7.84c-19.51-14.23-37.06-30.33-51.12-49.83-.94-1.3-1.65-2.61-1.56-3.76.12-1.47,1.29-2.69,2.79-3.79,17.1-12.53,36.51-20.73,57.2-25.74,5.89-1.42,11.45-1.99,17.29-.57,3.79,9.97,8.12,18.95,13.49,28.81-12.57,3.13-29.97,3.76-28.64,14.04Z"/>
      <path class="cls-2" d="M152.67,280.85l-21.53,28.2c-1.42,1.85-4.87-1.18-6.04-2.56-13.59-16.08-25.26-33.38-34.71-52.12-2.68-5.32-3.37-10.08-1.34-15.65,4.56-12.47,9.6-24.42,15.64-36.31l14.42-7.95c-.25,18.44,1.07,36.07,5.21,53.8,1.13,4.84,5.12,7.7,10.16,6.62,12.76-2.74,24.76-6.92,37.54-12.23.68,6.13-1.26,12.16-4.79,17.24l-14.55,20.95Z"/>
      <path class="cls-2" d="M365.42,137.08c-9.51,9.25-6.06,24.53.13,37.06l-23.41,5.06c-16.68-21.56-28.28-46.83-33.28-73.94-.39-2.09,3.83-3.42,5.01-3.9,22.13-5.95,44.8-7.19,67.38-3.35l3.96,23.14c-2.76,4.47-2.1,9.04-.46,14.28-7.01-2.74-14.19-3.35-19.34,1.66Z"/>
      <path class="cls-2" d="M190.85,133.41l-20.09,22.07c-21.52.99-41.89.51-62.44-3.92-2.01-.43-3.68-2.12-2.95-4.36,9.39-28.93,19.29-51.35,44.29-69.93l19.53,6.5-15.94,20.03c-2.29,4.34-.82,8.89,3.24,11.47,10.89,6.93,22,12.63,34.36,18.14Z"/>
      <path class="cls-1" d="M175.16,330.68c14.98,9.36,31.25,16.52,47.02,24.37l22.01,9.42c2.69,1.15,2.97,4.51,2,6.42-13.13,9.51-31.41,26.87-47.77,25.59-18.33-1.44-35.77-5.27-53.4-10.87l-3.62-19.99c14.08,2.29,42.27,4.85,45.26-2.84.61-1.58.79-3.68-.22-5.55l-12.65-23.34c-.79-1.45-.95-3.11-1.1-4.21l2.46,1Z"/>
      <path class="cls-1" d="M317.85,225.1c-13.85,1.77-22.97-3.59-33.1-12.69-1.45-1.3-2.24-3.54-4.39-4.2-.25-2.39-2.12-4.09-3.67-6.18-6.48-8.74-12.3-17.3-16.53-27.99,15.72-12.94,32.92-23.27,52.4-30.19,6.33,13.49,12.92,25.81,22.22,37.85-9.61,3.67-19.03,7.29-27.81,12.85-2.9,1.7-3.76,4.66-2.36,7.72,3.46,8.36,8.37,15.59,13.25,22.83Z"/>
      <path class="cls-1" d="M200.53,217.92c-2.55,5.11-7.38,7.44-12.29,10.12-17.09,8.6-34.92,15.08-53.77,18.97-7.37,1.52-9.73-42.44-8.3-56.82,5.46-8.72,9.61-17.34,13.6-27.03l27.06-.12c-6.16,12.1-10.54,23.96-13.73,36.68-1.02,4.08.79,7.58,4.45,9.51,13.64,4.54,27.23,7.23,42.97,8.69Z"/>
      <path class="cls-2" d="M253.06,177.24c5.06,11.61,12.54,20.72,20.02,30.73-7.3.69-13.41-1.19-19.52-3.92-16.48-7.37-31.23-17.22-44.92-28.91-1.77-1.51-2.75-4.04-1.23-6.11,12.94-17.53,28.22-32.71,47.52-44.64,9.26,8.94,18,17.44,28.71,25.03-9.84,5.67-19.11,11.71-27.95,18.86-2.74,2.21-4.47,5.14-2.63,8.95Z"/>
      <path class="cls-2" d="M307.39,382.92l-19.57,23.49c-4.35,5.23-9.27,8.45-15.97,10.28-15.35,4.19-31.11,5.62-47.16,4.6l-11.71-19.93c15.57-7.74,28.31-17.63,40.51-28.55l37,3.3c8.45.75,17.7-1.29,16.9,6.83Z"/>
      <path class="cls-1" d="M126.89,175.53c-2.7,5.62-6.89,9.62-12.18,12.92-13.36,8.35-27.77,14.1-43.16,18.12-1.19.31-2.58-.23-3.13-.72-4.17-3.64,2.32-39.35,5.54-53.11,2.47-10.59,6.1-20.2,11.77-29.61l21.59-.93c-5.46,14.9-16.82,33.23-2.44,36.69,9.16,2.21,17.99,3.12,28.09,3.99l-6.08,12.63Z"/>
      <path class="cls-2" d="M241.01,205.82c-5.56,5.73-12.61,8.04-20.6,7.38-19.4-1.6-38.23-4.48-56.75-10.03-2.11-.63-3.9-2.69-3.3-4.94,3.92-14.54,9.57-28.07,17.25-40.85,6.43-7.65,13.16-14.29,20.55-20.92l21.25,7.92c-7.02,7.6-13.67,14.79-19.58,23.09-2.86,4.02-1.65,8.32,1.84,11.64,11.4,10.85,24.23,19.13,39.33,26.71Z"/>
      <path class="cls-2" d="M95.16,207.06c-6.08,15.69-18.31,33.66-12.76,48.34-6.95,8.69-28.72,27.22-32.18,25.73-4.62-2-8.91-43.25-9.46-57.87-.39-10.51,1.42-20.43,4.44-30.12l16.32-8.23c-.88,8.18-1.46,15.44-1,23.22.61,5.01,4.9,7.86,9.8,6.79l24.85-7.85Z"/>
      <path class="cls-2" d="M367.26,379.36l-14.28,27.46c-4.28,8.22-34.95,18.15-49.59,20.36l-15.28-12.3c9.74-9.56,18.51-20.18,25.3-31.98l46.05-8.83c4.27-.82,7.68,1.57,7.8,5.28Z"/>
      <path class="cls-2" d="M434.7,177.13c-6.69-4.03-14.94-5.6-20.3-10.97l-8.96-14.89-11.95-11.99c-2.99-3-2.92-8.71-2.81-12.84,11.96-.09,22.86,2.49,33.96,5.59,6.79,1.9,12.59,5.59,17.02,10.97-4.49,10.96-6.27,21.22-6.97,34.13Z"/>
      <path class="cls-2" d="M481.96,187.28c-11.72,1.03-13.02,4.3-16.72,15.1-7.57-8.07-15.83-14.64-24.75-21.04-2.42-10.31,5.57-35.73,9-37.74,2.84-1.66,16.82,11.84,21.88,18.75,5.29,7.22,7.87,16.05,10.6,24.92Z"/>
      <path class="cls-2" d="M496.02,236.57c-2.34,2.27-5.68,2.41-8.27,3.78-.67-2.3-1.95-4.14-3.17-6.25l-15.32-26.52c-.96-3.78,2.49-10.86,5.5-12.77,3.78-2.4,8.62-1.13,12.08-.06,3.85,1.19,5,4.86,3.47,8.44l5.71,33.38Z"/>
      <path class="cls-5" d="M448.79,219.9c-3.23,3.9-7.94,4.96-12.19,3.68s-7.08-5.32-7.28-9.9,2.35-8.99,7.17-10.45c4.63-1.4,9.29.18,12.1,3.42,3.07,3.52,3.63,9.09.19,13.25ZM440.55,207.71c-2.1,1.69-1.56,4.69.03,5.88,1.25.94,3.31,1.06,4.79-.04,1.58-1.18,1.67-3.62.44-5.2-1-1.28-3.27-2.24-5.25-.65Z"/>
      <path class="cls-5" d="M404.9,171.02c-1.78-2.04-5.85-5.34-9.3-5.37-5.21-.05-5.81,9.94-.55,19.53-19.32-.97-29.58-33.77-20.04-39.49,3.37-2.02,8.39-.38,11.76,1.35,9.32,4.76,15.5,13.25,18.95,23.08.16.45.27.61.48.74.66.41.47,1.23-.28,1.33l-1.02-1.16Z"/>
      <path class="cls-5" d="M389.94,325.49c2.18.28,3.49,3.98,3.47,5.95-2.15-.47-4.24-.81-6.65.09-4.14-3.87-9.76-5.1-15.39-5.86,6.48-1.92,12.59-.93,18.57-.17Z"/>
      <path class="cls-5" d="M383.54,338.12c-3.89-1.22-8.17-1.57-12.28,0l-8.15-4.61c7.1-2.09,17.83-.65,20.43,4.62Z"/>
      <path class="cls-4" d="M373.33,377.01c-2.87,10.85-7.95,20.74-13.19,30.79-1.83-.85-4.78-.58-7.17-.98l14.28-27.46c2.29-.34,4.25-1.43,6.08-2.35Z"/>
      <path class="cls-4" d="M278.26,217.74c.83,2.28,2.95,3.29,4.82,4.84,10.84,9.03,24.14,12.87,38.13,10.33,5.04,6.13,9.46,11.51,15.54,16.06-1.33,2.25-2.33,4.6-3.64,5.81l-11.02,10.11c-17.77,13.11-38.91,21.47-60.41,23.93-2.44.28-5.55-.02-7.68-1.53-1.39-.99-2.4-3.92-2.25-6.31l.97-15.76c.8-13.03,4.1-25.72,8.16-38.67,5.83-3.51,11.41-6.72,17.39-8.82Z"/>
      <path class="cls-3" d="M222.6,321.3l1.88-.14c.47,1.24,1.5,1.52,3.18,1.74,6.12.8,11.64,4.27,15.06,8.89,4.38,5.92,8.54,11.96,9.91,19.25l-9.32-8.51c-3.03-11.42-19.49-15.52-32.38-13.51,5.46,2.65,10.39,3.88,13.43,8.34-.75.41-1.6,1.68-2.39,2.95,3,4.67,5.8,9.03,7.48,13.88l-7.27.86c-15.77-7.84-32.03-15.01-47.02-24.37.08-2.3,1.23-2.85,3.35-3.45,14.67-4.14,29.41-4.86,44.08-5.93Z"/>
      <path class="cls-2" d="M243.31,342.53l9.32,8.51c.51.46,1.26.91,1.84,1.17.24,4.15,5.15,8.96,2.35,12.27-3.88,4.6-13.76-10.85-27.37-10.29-1.68-4.85-4.48-9.22-7.48-13.88.79-1.27,1.64-2.54,2.39-2.95,2.79-1.38,6.38-.98,9.5.55l9.44,4.63Z"/>
      <path class="cls-4" d="M268.02,347.39c-4.1-7.25-11.86-12.48-19.5-15.72l-5.99-10.92c25.9,1.39,40.62,29.27,36.09,32.93-.65.53-2.14.31-3.11-.53l-7.49-5.77Z"/>
      <path class="cls-1" d="M248.53,331.67c7.64,3.24,15.39,8.46,19.5,15.72,3.78,6.68,7.17,14.54,3,15.16-3.98.6-8.34-6.77-16.55-10.35-.58-.25-1.34-.7-1.84-1.17-1.36-7.29-5.52-13.33-9.91-19.25,1.93-.22,4.2-.79,5.8-.12Z"/>
      <path class="cls-5" d="M242.53,320.75l5.99,10.92c-1.6-.68-3.87-.11-5.8.12-3.42-4.62-8.94-8.09-15.06-8.89-1.68-.22-2.71-.5-3.18-1.74l18.05-.4Z"/>
      <path class="cls-6" d="M440.55,207.71c1.99-1.6,4.25-.63,5.25.65,1.23,1.58,1.14,4.02-.44,5.2-1.48,1.1-3.53.98-4.79.04-1.58-1.19-2.13-4.19-.03-5.88Z"/>
      <path class="cls-5" d="M243.31,342.53l-9.44-4.63c-3.12-1.53-6.71-1.92-9.5-.55-3.04-4.47-7.98-5.69-13.43-8.34,12.89-2,29.35,2.09,32.38,13.51Z"/>
    </g>
  </g>
</svg>